<?xml version="1.0" encoding="UTF-8" standalone="no"?>
<svg
   xmlns:dc="http://purl.org/dc/elements/1.1/"
   xmlns:cc="http://creativecommons.org/ns#"
   xmlns:rdf="http://www.w3.org/1999/02/22-rdf-syntax-ns#"
   xmlns:svg="http://www.w3.org/2000/svg"
   xmlns="http://www.w3.org/2000/svg"
   id="svg45"
   height="115.3668mm"
   width="298.99188mm"
   version="1.0">
  <metadata
     id="metadata49">
    <rdf:RDF>
      <cc:Work
         rdf:about="">
        <dc:format>image/svg+xml</dc:format>
        <dc:type
           rdf:resource="http://purl.org/dc/dcmitype/StillImage" />
      </cc:Work>
    </rdf:RDF>
  </metadata>
  <defs
     id="defs3">
    <pattern
       y="0"
       x="0"
       height="6"
       width="6"
       patternUnits="userSpaceOnUse"
       id="EMFhbasepattern" />
  </defs>
  <path
     id="path5"
     d="  M 146,302   C 206,302 288,336 348,336   C 391,336 432,324 456,307   C 458,298 459,287 459,277   C 459,177 377,96 277,96   C 177,96 96,177 96,277   C 96,287 97,297 98,307   C 105,306 127,302 146,302   z "
     style="fill:#ffffff;fill-rule:nonzero;fill-opacity:1;stroke:none;" />
  <path
     id="path7"
     d="  M 973,338   L 554,338   L 554,343   L 973,343   L 973,338  z   "
     style="fill:#e3a82b;fill-rule:nonzero;fill-opacity:1;stroke:none;" />
  <path
     id="path9"
     d="  M 565,156   C 565,147 564,145 558,144   C 554,144 554,144 554,144   C 554,144 554,141 554,141   C 561,141 570,140 582,140   C 590,140 598,141 603,144   C 609,146 613,151 613,158   C 613,166 608,171 600,174   C 600,175 601,175 602,176   C 609,177 619,182 619,195   C 619,208 608,217 585,217   C 582,217 576,217 570,217   C 565,217 560,217 555,217   C 555,217 554,215 555,214   C 558,214 558,214 558,214   C 564,213 565,212 565,199   z  M 575,171   C 575,174 575,174 582,174   C 595,174 602,170 602,160   C 602,148 592,144 583,144   C 580,144 578,144 577,145   C 576,145 575,146 575,148   z  M 575,198   C 575,202 575,208 578,210   C 580,213 584,214 588,214   C 599,214 608,209 608,197   C 608,188 603,178 582,178   C 576,178 575,178 575,181   z "
     style="fill:#ffffff;fill-rule:nonzero;fill-opacity:1;stroke:none;" />
  <path
     id="path11"
     d="  M 708,167   C 708,157 708,155 702,154   C 699,154 699,154 699,154   C 698,154 698,152 699,152   C 705,152 708,152 713,152   C 717,152 721,152 726,152   C 727,152 727,154 727,154   C 724,154 724,154 724,154   C 717,155 717,157 717,167   C 717,202 717,202 717,202   C 717,212 717,214 724,215   C 727,215 727,215 727,215   C 727,215 727,217 726,217   C 721,217 717,217 713,217   C 708,217 705,217 699,217   C 698,217 698,215 699,215   C 702,215 702,215 702,215   C 708,214 708,212 708,202   z "
     style="fill:#ffffff;fill-rule:nonzero;fill-opacity:1;stroke:none;" />
  <path
     id="path13"
     d="  M 769,202   C 769,213 769,214 775,215   C 778,215 778,215 778,215   C 779,215 779,217 778,217   C 772,217 769,217 765,217   C 761,217 757,217 750,217   C 750,217 750,215 750,215   C 754,215 754,215 754,215   C 760,214 760,213 760,202   C 760,158 760,158 760,158   C 760,155 760,155 757,155   C 752,155 752,155 752,155   C 747,155 742,155 739,158   C 737,160 736,162 735,164   C 734,165 732,165 732,164   C 734,159 735,153 736,149   C 736,149 737,149 738,149   C 738,152 742,152 746,152   C 788,152 788,152 788,152   C 793,152 794,152 796,149   C 796,149 797,149 798,150   C 797,154 796,162 796,165   C 796,165 794,165 793,165   C 793,162 792,159 791,158   C 789,156 785,155 779,155   C 772,155 772,155 772,155   C 769,155 769,155 769,159   z "
     style="fill:#ffffff;fill-rule:nonzero;fill-opacity:1;stroke:none;" />
  <path
     id="path15"
     d="  M 813,167   C 813,157 812,155 806,154   C 803,154 803,154 803,154   C 803,154 803,152 803,152   C 809,152 813,152 817,152   C 822,152 825,152 831,152   C 831,152 832,154 831,154   C 828,154 828,154 828,154   C 822,155 822,157 822,167   C 822,202 822,202 822,202   C 822,212 822,214 828,215   C 831,215 831,215 831,215   C 832,215 831,217 831,217   C 825,217 822,217 817,217   C 813,217 809,217 803,217   C 803,217 803,215 803,215   C 806,215 806,215 806,215   C 812,214 813,212 813,202   z "
     style="fill:#ffffff;fill-rule:nonzero;fill-opacity:1;stroke:none;" />
  <path
     id="path17"
     d="  M 862,218   C 852,218 846,216 843,215   C 842,213 841,206 840,201   C 841,200 843,200 843,201   C 845,206 850,215 863,215   C 873,215 878,210 878,204   C 878,200 876,195 868,190   C 857,184 857,184 857,184   C 851,181 844,175 844,167   C 844,158 853,150 868,150   C 872,150 876,151 879,152   C 880,152 882,152 883,152   C 884,155 885,160 885,164   C 885,165 883,165 882,164   C 881,160 878,153 866,153   C 855,153 853,160 853,164   C 853,170 858,174 862,176   C 872,181 872,181 872,181   C 879,185 886,191 886,200   C 886,211 877,218 862,218   z "
     style="fill:#ffffff;fill-rule:nonzero;fill-opacity:1;stroke:none;" />
  <path
     id="path19"
     d="  M 920,185   C 915,185 915,185 915,188   C 915,202 915,202 915,202   C 915,213 915,214 921,215   C 924,215 924,215 924,215   C 925,215 925,217 924,217   C 918,217 915,217 910,217   C 906,217 902,217 898,217   C 898,217 897,215 898,215   C 900,215 900,215 900,215   C 906,214 906,213 906,202   C 906,167 906,167 906,167   C 906,157 905,155 900,154   C 897,154 897,154 897,154   C 896,154 897,152 897,152   C 902,152 906,152 910,152   C 915,152 918,152 923,152   C 923,152 924,154 923,154   C 921,154 921,154 921,154   C 915,155 915,157 915,167   C 915,178 915,178 915,178   C 915,181 915,181 920,181   C 950,181 950,181 950,181   C 955,181 955,181 955,178   C 955,167 955,167 955,167   C 955,157 955,155 949,154   C 947,154 947,154 947,154   C 946,154 947,152 947,152   C 952,152 956,152 960,152   C 964,152 968,152 972,152   C 973,152 973,154 973,154   C 970,154 970,154 970,154   C 964,155 964,157 964,167   C 964,202 964,202 964,202   C 964,213 964,214 970,215   C 973,215 973,215 973,215   C 974,215 973,217 973,217   C 968,217 964,217 960,217   C 956,217 952,217 947,217   C 947,217 946,215 947,215   C 949,215 949,215 949,215   C 955,214 955,213 955,202   C 955,188 955,188 955,188   C 955,185 955,185 950,185   z "
     style="fill:#ffffff;fill-rule:nonzero;fill-opacity:1;stroke:none;" />
  <path
     id="path21"
     d="  M 504,239   C 513,232 524,229 536,229   C 543,229 552,230 557,232   C 559,232 560,232 561,232   C 561,235 561,242 562,250   C 562,250 560,251 559,250   C 557,242 552,232 535,232   C 516,232 501,244 501,269   C 501,293 517,307 536,307   C 552,307 558,297 561,290   C 562,290 564,290 564,291   C 563,297 560,305 559,307   C 557,307 556,308 554,308   C 552,309 543,311 536,311   C 525,311 515,309 506,303   C 496,296 489,286 489,270   C 489,257 495,246 504,239   z "
     style="fill:#ffffff;fill-rule:nonzero;fill-opacity:1;stroke:none;" />
  <path
     id="path23"
     d="  M 569,277   C 569,258 585,243 606,243   C 630,243 642,259 642,276   C 642,296 626,311 606,311   C 583,311 569,295 569,277   z  M 631,279   C 631,263 624,246 604,246   C 593,246 579,253 579,274   C 579,289 587,308 607,308   C 620,308 631,299 631,279   z "
     style="fill:#ffffff;fill-rule:nonzero;fill-opacity:1;stroke:none;" />
  <path
     id="path25"
     d="  M 758,269   C 758,263 758,251 756,248   C 755,247 754,247 751,246   C 748,246 748,246 748,246   C 748,246 748,244 749,244   C 753,244 756,244 760,244   C 765,244 768,244 771,244   C 772,244 772,246 772,246   C 769,246 769,246 769,246   C 767,247 765,248 764,249   C 762,252 762,263 762,269   C 762,280 762,280 762,280   C 762,288 761,298 755,303   C 751,308 743,311 735,311   C 728,311 721,309 716,305   C 710,301 708,294 708,282   C 708,259 708,259 708,259   C 708,249 707,247 701,246   C 699,246 699,246 699,246   C 698,246 698,244 699,244   C 704,244 708,244 712,244   C 716,244 720,244 725,244   C 725,244 726,246 725,246   C 722,246 722,246 722,246   C 716,247 716,249 716,259   C 716,280 716,280 716,280   C 716,296 721,306 737,306   C 752,306 758,295 758,280   z "
     style="fill:#ffffff;fill-rule:nonzero;fill-opacity:1;stroke:none;" />
  <path
     id="path27"
     d="  M 879,257   C 879,249 879,247 874,247   C 870,247 870,247 870,247   C 870,246 869,244 870,244   C 876,244 884,243 895,243   C 902,243 909,244 914,246   C 919,248 923,252 923,259   C 923,266 918,269 911,272   C 911,273 912,273 913,274   C 920,275 929,280 929,290   C 929,302 919,309 898,309   C 895,309 889,309 884,309   C 879,309 875,309 871,309   C 870,309 870,308 871,307   C 873,307 873,307 873,307   C 879,306 879,305 879,294   z  M 889,270   C 889,273 889,273 895,273   C 906,272 913,269 913,260   C 913,250 904,246 896,246   C 893,246 891,247 890,247   C 889,247 889,248 889,250   z  M 889,293   C 889,296 889,301 891,304   C 893,306 897,306 900,306   C 910,306 918,302 918,292   C 918,285 914,276 895,276   C 889,276 889,276 889,278   z "
     style="fill:#ffffff;fill-rule:nonzero;fill-opacity:1;stroke:none;" />
  <path
     id="path29"
     d="  M 692,215   C 689,215 689,215 689,215   C 688,215 688,214 687,214   C 683,214 682,210 680,207   C 670,190 670,190 670,190   C 669,188 667,184 663,183   C 673,182 682,177 682,167   C 682,156 671,151 660,151   C 653,151 647,151 640,151   C 637,151 632,151 628,151   C 626,151 626,152 626,153   C 626,154 627,154 629,154   C 637,154 637,156 637,163   C 637,206 637,206 637,206   C 637,212 637,214 631,214   C 631,214 630,214 629,215   C 627,215 627,215 627,215   C 626,215 626,217 627,217   C 628,217 631,217 631,217   C 634,217 638,217 642,217   C 645,217 649,217 652,217   C 652,217 652,217 652,217   C 653,217 655,217 656,217   C 657,217 657,215 656,215   C 654,215 654,215 654,215   C 653,214 652,214 652,214   C 646,214 646,212 646,206   C 646,190 646,190 646,190   C 646,189 646,186 647,185   C 647,185 648,185 649,185   C 658,185 658,186 662,193   C 673,214 673,214 673,214   C 674,215 675,217 677,217   C 687,217 687,217 687,217   C 689,217 690,217 691,217   C 692,217 692,215 692,215   z  M 652,183   C 650,183 646,183 646,181   C 646,162 646,162 646,162   C 646,154 646,153 655,153   C 665,153 672,159 672,168   C 672,173 670,176 666,179   C 662,182 657,183 652,183   z "
     style="fill:#ffffff;fill-rule:nonzero;fill-opacity:1;stroke:none;" />
  <path
     id="path31"
     d="  M 654,259   C 654,249 654,247 647,247   C 644,247 644,247 644,247   C 644,246 644,244 644,244   C 651,244 654,244 659,244   C 663,244 666,244 672,244   C 672,244 673,246 672,247   C 669,247 669,247 669,247   C 663,247 663,249 663,259   C 663,293 663,293 663,293   C 663,300 663,302 665,304   C 666,305 668,306 677,306   C 686,306 688,306 690,305   C 692,304 695,300 697,295   C 698,295 700,295 700,296   C 700,297 697,307 695,310   C 690,309 680,309 668,309   C 659,309 659,309 659,309   C 654,309 651,309 644,310   C 644,309 644,308 644,307   C 647,307 647,307 647,307   C 654,306 654,305 654,295   z "
     style="fill:#ffffff;fill-rule:nonzero;fill-opacity:1;stroke:none;" />
  <path
     id="path33"
     d="  M 944,259   C 944,249 943,247 937,247   C 935,247 935,247 935,247   C 934,246 934,244 935,244   C 940,244 944,244 948,244   C 952,244 956,244 961,244   C 962,244 962,246 961,247   C 959,247 959,247 959,247   C 953,247 952,249 952,259   C 952,294 952,294 952,294   C 952,305 953,306 959,307   C 961,307 961,307 961,307   C 962,308 962,309 961,310   C 956,309 952,309 948,309   C 944,309 940,309 935,310   C 934,309 934,308 935,307   C 937,307 937,307 937,307   C 943,306 944,305 944,294   z "
     style="fill:#ffffff;fill-rule:nonzero;fill-opacity:1;stroke:none;" />
  <path
     id="path35"
     d="  M 859,307   C 858,307 857,307 857,307   C 856,307 855,306 854,306   C 853,304 853,300 853,298   C 853,255 853,255 853,255   C 853,253 853,249 854,248   C 855,247 856,247 857,247   C 857,247 857,247 857,247   C 858,247 858,247 859,247   C 862,246 862,246 862,246   C 862,246 862,244 861,244   C 860,244 859,244 857,244   C 857,244 857,244 857,244   C 846,244 846,244 846,244   C 844,244 843,244 843,245   C 819,295 819,295 819,295   C 798,247 798,247 798,247   C 797,245 797,244 795,244   C 783,244 783,244 783,244   C 782,244 780,244 779,244   C 778,244 778,246 779,246   C 781,247 781,247 781,247   C 782,247 783,247 783,247   C 788,247 788,248 787,253   C 784,299 784,299 784,299   C 784,304 783,306 778,307   C 778,307 777,307 777,307   C 774,307 774,307 774,307   C 773,308 774,309 774,310   C 776,309 778,309 778,309   C 781,309 783,309 786,309   C 789,309 791,309 794,309   C 794,309 794,309 794,309   C 795,309 797,310 798,310   C 799,309 799,308 798,307   C 795,307 795,307 795,307   C 795,307 794,307 794,307   C 787,306 787,301 788,295   C 791,252 791,252 791,252   C 792,252 792,252 792,252   C 814,305 814,305 814,305   C 815,306 815,307 816,307   C 817,307 817,306 818,305   C 843,251 843,251 843,251   C 844,251 844,251 844,251   C 844,298 844,298 844,298   C 844,300 844,304 842,305   C 841,306 838,307 838,307   C 837,307 837,307 836,307   C 834,307 834,307 834,307   C 833,308 833,309 834,310   C 835,310 838,309 838,309   C 842,309 845,309 849,309   C 852,309 857,309 857,309   C 858,309 860,309 861,310   C 862,309 862,308 862,307   z "
     style="fill:#ffffff;fill-rule:nonzero;fill-opacity:1;stroke:none;" />
  <path
     id="path37"
     d="  M 1036,307   C 1036,307 1036,307 1036,307   C 1035,307 1035,307 1034,307   C 1030,306 1028,301 1027,297   C 1005,245 1005,245 1005,245   C 1005,244 1004,243 1003,243   C 1002,243 1002,245 1002,245   C 981,297 981,297 981,297   C 980,299 978,304 977,305   C 975,306 974,307 973,307   C 973,307 971,307 971,307   C 968,307 968,307 968,307   C 968,308 968,309 968,310   C 970,310 972,309 972,309   C 975,309 978,309 981,309   C 983,309 986,309 988,309   C 988,309 991,309 992,310   C 993,309 993,308 993,307   C 990,307 990,307 990,307   C 989,307 988,307 988,307   C 986,306 983,306 983,303   C 983,301 984,299 984,297   C 987,290 987,290 987,290   C 989,286 988,286 993,286   C 1007,286 1007,286 1007,286   C 1013,286 1012,286 1014,291   C 1018,299 1018,299 1018,299   C 1018,300 1019,302 1019,304   C 1019,306 1016,307 1014,307   C 1014,307 1013,307 1012,307   C 1009,307 1009,307 1009,307   C 1009,308 1009,309 1010,310   C 1011,309 1014,309 1014,309   C 1017,309 1020,309 1023,309   C 1027,309 1030,309 1034,309   C 1034,309 1034,309 1034,309   C 1035,309 1034,309 1036,310   C 1037,309 1037,308 1036,307   z  M 1007,283   C 995,283 995,283 995,283   C 994,283 991,283 991,282   C 991,282 991,281 991,281   C 999,262 999,262 999,262   C 999,261 1000,259 1001,259   C 1001,259 1002,261 1002,262   C 1010,280 1010,280 1010,280   C 1010,280 1011,281 1011,282   C 1011,283 1008,283 1007,283   z "
     style="fill:#ffffff;fill-rule:nonzero;fill-opacity:1;stroke:none;" />
  <path
     id="path39"
     d="  M 394,235   L 402,238   L 418,227   L 394,235  z   "
     style="fill:#e3a82b;fill-rule:nonzero;fill-opacity:1;stroke:none;" />
  <path
     id="path41"
     d="  M 127,223   C 108,216 108,216 108,216   C 109,214 109,214 109,214   C 131,221 131,221 131,221   C 131,221 131,221 131,221   C 133,219 133,219 133,219   C 135,219 135,219 135,219   C 111,209 111,209 111,209   C 112,206 112,206 112,206   C 164,227 164,227 164,227   C 166,226 166,226 166,226   C 114,201 114,201 114,201   C 116,199 116,199 116,199   C 170,224 170,224 170,224   C 171,224 171,224 171,224   C 118,194 118,194 118,194   C 119,192 119,192 119,192   C 195,233 195,233 195,233   C 196,232 197,230 198,229   C 169,202 141,181 141,181   C 141,181 170,201 205,218   C 206,217 207,216 208,214   C 144,157 144,157 144,157   C 145,155 145,155 145,155   C 198,200 198,200 198,200   C 149,152 149,152 149,152   C 151,150 151,150 151,150   C 205,202 205,202 205,202   C 155,146 155,146 155,146   C 157,144 157,144 157,144   C 204,194 204,194 204,194   C 161,141 161,141 161,141   C 163,139 163,139 163,139   C 217,206 217,206 217,206   C 219,204 220,203 221,202   C 205,166 187,137 187,137   C 187,137 206,166 232,195   C 234,194 235,194 237,193   C 237,193 237,193 237,193   C 198,116 198,116 198,116   C 201,115 201,115 201,115   C 232,176 232,176 232,176   C 206,113 206,113 206,113   C 208,112 208,112 208,112   C 239,181 239,181 239,181   C 213,110 213,110 213,110   C 215,109 215,109 215,109   C 240,173 240,173 240,173   C 220,107 220,107 220,107   C 223,106 223,106 223,106   C 248,188 248,188 248,188   C 248,188 248,188 248,188   C 248,188 248,188 248,188   C 250,187 252,187 254,186   C 252,147 246,114 246,114   C 246,114 253,147 266,184   C 268,184 270,184 271,183   C 271,183 271,183 271,183   C 272,183 272,183 272,183   C 271,183 271,183 271,183   C 265,98 265,98 265,98   C 267,98 267,98 267,98   C 274,166 274,166 274,166   C 273,97 273,97 273,97   C 275,97 275,97 275,97   C 278,173 278,173 278,173   C 280,97 280,97 280,97   C 283,97 283,97 283,97   C 282,166 282,166 282,166   C 288,98 288,98 288,98   C 291,98 291,98 291,98   C 284,183 284,183 284,183   C 284,183 284,183 284,183   C 284,183 284,183 284,183   C 284,183 284,183 284,183   C 284,183 284,183 284,183   C 286,184 288,184 289,184   C 302,147 309,114 309,114   C 309,114 304,147 302,186   C 303,187 305,187 307,188   C 332,106 332,106 332,106   C 335,107 335,107 335,107   C 315,173 315,173 315,173   C 340,109 340,109 340,109   C 342,110 342,110 342,110   C 317,181 317,181 317,181   C 347,112 347,112 347,112   C 350,113 350,113 350,113   C 323,176 323,176 323,176   C 355,115 355,115 355,115   C 357,116 357,116 357,116   C 319,193 319,193 319,193   C 319,193 319,193 319,193   C 320,193 322,194 323,195   C 349,165 369,137 369,137   C 369,137 351,166 334,202   C 335,203 337,204 338,205   C 392,139 392,139 392,139   C 394,141 394,141 394,141   C 352,195 352,195 352,195   C 398,145 398,145 398,145   C 400,147 400,147 400,147   C 350,203 350,203 350,203   C 404,150 404,150 404,150   C 406,152 406,152 406,152   C 357,201 357,201 357,201   C 410,156 410,156 410,156   C 412,158 412,158 412,158   C 347,214 347,214 347,214   C 347,214 347,214 347,214   C 349,216 350,217 351,218   C 386,200 414,181 414,181   C 414,181 387,202 358,229   C 359,230 360,232 361,233   C 436,193 436,193 436,193   C 437,195 437,195 437,195   C 377,229 377,229 377,229   C 439,200 439,200 439,200   C 440,202 440,202 440,202   C 382,230 382,230 382,230   C 383,231 383,231 383,231   C 442,207 442,207 442,207   C 443,209 443,209 443,209   C 389,233 389,233 389,233   C 390,233 390,233 390,233   C 426,221 426,221 426,221   C 432,217 432,217 432,217   C 434,218 434,218 434,218   C 446,214 446,214 446,214   C 446,217 446,217 446,217   C 436,220 436,220 436,220   C 451,232 451,232 451,232   C 456,235 456,235 456,235   C 437,154 364,94 277,94   C 189,94 115,156 98,239   C 98,239 98,239 98,239   C 101,238 101,238 101,238   C 102,237 102,237 102,237   z "
     style="fill:#e3a82b;fill-rule:nonzero;fill-opacity:1;stroke:none;" />
  <path
     id="path43"
     d="  M 97,311   C 97,311 124,305 146,305   C 206,305 288,339 348,339   C 392,339 435,327 458,309   C 460,299 461,288 461,277   C 461,263 459,248 456,235   C 431,221 431,221 431,221   C 402,241 402,241 402,241   C 382,234 382,234 382,234   C 375,237 334,264 334,264   C 318,253 318,253 318,253   C 302,250 302,250 302,250   C 279,233 279,233 279,233   C 253,251 253,251 253,251   C 253,251 224,268 223,268   C 222,268 188,241 188,241   C 173,224 173,224 173,224   C 170,226 159,231 159,231   C 159,231 159,231 159,231   C 149,228 149,228 149,228   C 136,221 136,221 136,221   C 98,239 98,239 98,239   C 98,239 98,239 98,239   C 95,251 94,264 94,277   C 94,289 95,300 97,311   z "
     style="fill:#65799e;fill-rule:nonzero;fill-opacity:1;stroke:none;" />
</svg>
